<mxfile host="app.diagrams.net" modified="2023-04-27T23:03:22.216Z" agent="Mozilla/5.0 (Windows NT 10.0; Win64; x64; rv:109.0) Gecko/20100101 Firefox/112.0" etag="7cJAfJOLozgIycTGslQE" version="21.2.1" type="device" pages="2">
  <diagram name="main" id="XVVzpDpDpn4CI28a46fl">
    <mxGraphModel dx="903" dy="1159" grid="1" gridSize="10" guides="1" tooltips="1" connect="1" arrows="1" fold="1" page="1" pageScale="1" pageWidth="850" pageHeight="1100" math="0" shadow="0">
      <root>
        <mxCell id="0" />
        <mxCell id="1" parent="0" />
        <mxCell id="HSsXzMtMouH3eaDZhaDV-58" style="edgeStyle=orthogonalEdgeStyle;rounded=0;orthogonalLoop=1;jettySize=auto;html=1;exitX=0.5;exitY=1;exitDx=0;exitDy=0;entryX=0.5;entryY=0;entryDx=0;entryDy=0;" edge="1" parent="1" source="HSsXzMtMouH3eaDZhaDV-26" target="HSsXzMtMouH3eaDZhaDV-30">
          <mxGeometry relative="1" as="geometry" />
        </mxCell>
        <mxCell id="HSsXzMtMouH3eaDZhaDV-26" value="main( )" style="ellipse;whiteSpace=wrap;html=1;aspect=fixed;" vertex="1" parent="1">
          <mxGeometry x="371" y="10" width="80" height="80" as="geometry" />
        </mxCell>
        <mxCell id="HSsXzMtMouH3eaDZhaDV-27" value="" style="edgeStyle=orthogonalEdgeStyle;rounded=0;orthogonalLoop=1;jettySize=auto;html=1;" edge="1" parent="1" source="HSsXzMtMouH3eaDZhaDV-29" target="HSsXzMtMouH3eaDZhaDV-43">
          <mxGeometry relative="1" as="geometry" />
        </mxCell>
        <mxCell id="HSsXzMtMouH3eaDZhaDV-28" value="" style="edgeStyle=orthogonalEdgeStyle;rounded=0;orthogonalLoop=1;jettySize=auto;html=1;" edge="1" parent="1" source="HSsXzMtMouH3eaDZhaDV-29" target="HSsXzMtMouH3eaDZhaDV-35">
          <mxGeometry relative="1" as="geometry" />
        </mxCell>
        <mxCell id="HSsXzMtMouH3eaDZhaDV-29" value="if choice == 1" style="rhombus;whiteSpace=wrap;html=1;" vertex="1" parent="1">
          <mxGeometry x="365.75" y="310" width="89" height="80" as="geometry" />
        </mxCell>
        <mxCell id="HSsXzMtMouH3eaDZhaDV-57" style="edgeStyle=orthogonalEdgeStyle;rounded=0;orthogonalLoop=1;jettySize=auto;html=1;exitX=0.5;exitY=1;exitDx=0;exitDy=0;entryX=0.5;entryY=0;entryDx=0;entryDy=0;" edge="1" parent="1" source="HSsXzMtMouH3eaDZhaDV-30" target="HSsXzMtMouH3eaDZhaDV-32">
          <mxGeometry relative="1" as="geometry" />
        </mxCell>
        <mxCell id="HSsXzMtMouH3eaDZhaDV-30" value="&lt;div&gt;int choice = 0;&lt;/div&gt;&lt;div&gt;&lt;div&gt;Admin admin;&lt;/div&gt;&lt;div&gt;User user;&lt;br&gt;&lt;/div&gt;&lt;/div&gt;" style="rounded=1;whiteSpace=wrap;html=1;" vertex="1" parent="1">
          <mxGeometry x="330" y="120" width="162" height="60" as="geometry" />
        </mxCell>
        <mxCell id="HSsXzMtMouH3eaDZhaDV-31" value="" style="edgeStyle=orthogonalEdgeStyle;rounded=0;orthogonalLoop=1;jettySize=auto;html=1;" edge="1" parent="1" source="HSsXzMtMouH3eaDZhaDV-32" target="HSsXzMtMouH3eaDZhaDV-29">
          <mxGeometry relative="1" as="geometry" />
        </mxCell>
        <mxCell id="HSsXzMtMouH3eaDZhaDV-32" value="Prompt for user&#39;s menu choice" style="shape=parallelogram;perimeter=parallelogramPerimeter;whiteSpace=wrap;html=1;fixedSize=1;" vertex="1" parent="1">
          <mxGeometry x="327" y="210" width="169" height="50" as="geometry" />
        </mxCell>
        <mxCell id="HSsXzMtMouH3eaDZhaDV-33" value="" style="edgeStyle=orthogonalEdgeStyle;rounded=0;orthogonalLoop=1;jettySize=auto;html=1;" edge="1" parent="1" source="HSsXzMtMouH3eaDZhaDV-35" target="HSsXzMtMouH3eaDZhaDV-42">
          <mxGeometry relative="1" as="geometry" />
        </mxCell>
        <mxCell id="HSsXzMtMouH3eaDZhaDV-34" style="edgeStyle=orthogonalEdgeStyle;rounded=0;orthogonalLoop=1;jettySize=auto;html=1;exitX=0.5;exitY=1;exitDx=0;exitDy=0;entryX=0.5;entryY=0;entryDx=0;entryDy=0;" edge="1" parent="1" source="HSsXzMtMouH3eaDZhaDV-35" target="HSsXzMtMouH3eaDZhaDV-38">
          <mxGeometry relative="1" as="geometry" />
        </mxCell>
        <mxCell id="HSsXzMtMouH3eaDZhaDV-35" value="if choice == 2" style="rhombus;whiteSpace=wrap;html=1;" vertex="1" parent="1">
          <mxGeometry x="361.75" y="430" width="99" height="80" as="geometry" />
        </mxCell>
        <mxCell id="HSsXzMtMouH3eaDZhaDV-36" value="" style="edgeStyle=orthogonalEdgeStyle;rounded=0;orthogonalLoop=1;jettySize=auto;html=1;" edge="1" parent="1" source="HSsXzMtMouH3eaDZhaDV-38" target="HSsXzMtMouH3eaDZhaDV-45">
          <mxGeometry relative="1" as="geometry" />
        </mxCell>
        <mxCell id="HSsXzMtMouH3eaDZhaDV-37" value="" style="edgeStyle=orthogonalEdgeStyle;rounded=0;orthogonalLoop=1;jettySize=auto;html=1;" edge="1" parent="1" source="HSsXzMtMouH3eaDZhaDV-38" target="HSsXzMtMouH3eaDZhaDV-41">
          <mxGeometry relative="1" as="geometry" />
        </mxCell>
        <mxCell id="HSsXzMtMouH3eaDZhaDV-38" value="if choice == 3" style="rhombus;whiteSpace=wrap;html=1;" vertex="1" parent="1">
          <mxGeometry x="367" y="560" width="89" height="80" as="geometry" />
        </mxCell>
        <mxCell id="HSsXzMtMouH3eaDZhaDV-39" value="" style="edgeStyle=orthogonalEdgeStyle;rounded=0;orthogonalLoop=1;jettySize=auto;html=1;" edge="1" parent="1" source="HSsXzMtMouH3eaDZhaDV-41" target="HSsXzMtMouH3eaDZhaDV-46">
          <mxGeometry relative="1" as="geometry" />
        </mxCell>
        <mxCell id="HSsXzMtMouH3eaDZhaDV-40" value="" style="edgeStyle=orthogonalEdgeStyle;rounded=0;orthogonalLoop=1;jettySize=auto;html=1;" edge="1" parent="1" source="HSsXzMtMouH3eaDZhaDV-41" target="HSsXzMtMouH3eaDZhaDV-50">
          <mxGeometry relative="1" as="geometry" />
        </mxCell>
        <mxCell id="HSsXzMtMouH3eaDZhaDV-41" value="if choice == 4" style="rhombus;whiteSpace=wrap;html=1;" vertex="1" parent="1">
          <mxGeometry x="361.25" y="700" width="99.5" height="80" as="geometry" />
        </mxCell>
        <mxCell id="HSsXzMtMouH3eaDZhaDV-42" value="user.signUp()" style="shape=process;whiteSpace=wrap;html=1;backgroundOutline=1;" vertex="1" parent="1">
          <mxGeometry x="545" y="450" width="160" height="40" as="geometry" />
        </mxCell>
        <mxCell id="HSsXzMtMouH3eaDZhaDV-43" value="admin.adminLogin()" style="shape=process;whiteSpace=wrap;html=1;backgroundOutline=1;" vertex="1" parent="1">
          <mxGeometry x="545" y="325" width="160" height="50" as="geometry" />
        </mxCell>
        <mxCell id="HSsXzMtMouH3eaDZhaDV-44" value="&lt;font style=&quot;font-size: 14px;&quot;&gt;&lt;b&gt;true&lt;/b&gt;&lt;/font&gt;" style="text;strokeColor=none;align=center;fillColor=none;html=1;verticalAlign=middle;whiteSpace=wrap;rounded=0;" vertex="1" parent="1">
          <mxGeometry x="470" y="310" width="60" height="30" as="geometry" />
        </mxCell>
        <mxCell id="HSsXzMtMouH3eaDZhaDV-45" value="getUsrLogin()" style="shape=process;whiteSpace=wrap;html=1;backgroundOutline=1;" vertex="1" parent="1">
          <mxGeometry x="545" y="580" width="160" height="40" as="geometry" />
        </mxCell>
        <mxCell id="HSsXzMtMouH3eaDZhaDV-46" value="admin.printItemStats()" style="shape=process;whiteSpace=wrap;html=1;backgroundOutline=1;" vertex="1" parent="1">
          <mxGeometry x="536" y="720" width="169" height="40" as="geometry" />
        </mxCell>
        <mxCell id="HSsXzMtMouH3eaDZhaDV-47" value="user.readInputFile()" style="shape=process;whiteSpace=wrap;html=1;backgroundOutline=1;" vertex="1" parent="1">
          <mxGeometry x="536" y="850" width="169" height="40" as="geometry" />
        </mxCell>
        <mxCell id="HSsXzMtMouH3eaDZhaDV-48" value="" style="edgeStyle=orthogonalEdgeStyle;rounded=0;orthogonalLoop=1;jettySize=auto;html=1;" edge="1" parent="1" source="HSsXzMtMouH3eaDZhaDV-50" target="HSsXzMtMouH3eaDZhaDV-47">
          <mxGeometry relative="1" as="geometry" />
        </mxCell>
        <mxCell id="HSsXzMtMouH3eaDZhaDV-49" value="" style="edgeStyle=orthogonalEdgeStyle;rounded=0;orthogonalLoop=1;jettySize=auto;html=1;" edge="1" parent="1" source="HSsXzMtMouH3eaDZhaDV-50" target="HSsXzMtMouH3eaDZhaDV-55">
          <mxGeometry relative="1" as="geometry" />
        </mxCell>
        <mxCell id="HSsXzMtMouH3eaDZhaDV-50" value="if choice == 5" style="rhombus;whiteSpace=wrap;html=1;" vertex="1" parent="1">
          <mxGeometry x="360.5" y="830" width="99.5" height="80" as="geometry" />
        </mxCell>
        <mxCell id="HSsXzMtMouH3eaDZhaDV-51" value="&lt;font style=&quot;font-size: 14px;&quot;&gt;&lt;b&gt;true&lt;/b&gt;&lt;/font&gt;" style="text;strokeColor=none;align=center;fillColor=none;html=1;verticalAlign=middle;whiteSpace=wrap;rounded=0;" vertex="1" parent="1">
          <mxGeometry x="456" y="830" width="60" height="30" as="geometry" />
        </mxCell>
        <mxCell id="HSsXzMtMouH3eaDZhaDV-52" value="&lt;font style=&quot;font-size: 14px;&quot;&gt;&lt;b&gt;true&lt;/b&gt;&lt;/font&gt;" style="text;strokeColor=none;align=center;fillColor=none;html=1;verticalAlign=middle;whiteSpace=wrap;rounded=0;" vertex="1" parent="1">
          <mxGeometry x="460.75" y="690" width="60" height="30" as="geometry" />
        </mxCell>
        <mxCell id="HSsXzMtMouH3eaDZhaDV-53" value="&lt;font style=&quot;font-size: 14px;&quot;&gt;&lt;b&gt;true&lt;/b&gt;&lt;/font&gt;" style="text;strokeColor=none;align=center;fillColor=none;html=1;verticalAlign=middle;whiteSpace=wrap;rounded=0;" vertex="1" parent="1">
          <mxGeometry x="456" y="560" width="60" height="30" as="geometry" />
        </mxCell>
        <mxCell id="HSsXzMtMouH3eaDZhaDV-54" value="&lt;font style=&quot;font-size: 14px;&quot;&gt;&lt;b&gt;true&lt;/b&gt;&lt;/font&gt;" style="text;strokeColor=none;align=center;fillColor=none;html=1;verticalAlign=middle;whiteSpace=wrap;rounded=0;" vertex="1" parent="1">
          <mxGeometry x="470" y="440" width="60" height="30" as="geometry" />
        </mxCell>
        <mxCell id="HSsXzMtMouH3eaDZhaDV-61" style="edgeStyle=orthogonalEdgeStyle;rounded=0;orthogonalLoop=1;jettySize=auto;html=1;exitX=0.5;exitY=1;exitDx=0;exitDy=0;entryX=0.5;entryY=0;entryDx=0;entryDy=0;" edge="1" parent="1" source="HSsXzMtMouH3eaDZhaDV-55" target="HSsXzMtMouH3eaDZhaDV-60">
          <mxGeometry relative="1" as="geometry" />
        </mxCell>
        <mxCell id="HSsXzMtMouH3eaDZhaDV-55" value="exit(0)" style="shape=process;whiteSpace=wrap;html=1;backgroundOutline=1;" vertex="1" parent="1">
          <mxGeometry x="368.75" y="940" width="84.5" height="50" as="geometry" />
        </mxCell>
        <mxCell id="HSsXzMtMouH3eaDZhaDV-56" value="&lt;font style=&quot;font-size: 14px;&quot;&gt;&lt;b&gt;Switch&lt;/b&gt;&lt;/font&gt;" style="text;strokeColor=none;align=center;fillColor=none;html=1;verticalAlign=middle;whiteSpace=wrap;rounded=0;" vertex="1" parent="1">
          <mxGeometry x="327" y="295" width="60" height="30" as="geometry" />
        </mxCell>
        <mxCell id="HSsXzMtMouH3eaDZhaDV-60" value="return 0" style="ellipse;whiteSpace=wrap;html=1;aspect=fixed;" vertex="1" parent="1">
          <mxGeometry x="381.25" y="1020" width="60" height="60" as="geometry" />
        </mxCell>
        <mxCell id="81i_IZVVY1EEvCUCS-hf-7" value="" style="edgeStyle=orthogonalEdgeStyle;rounded=0;orthogonalLoop=1;jettySize=auto;html=1;" edge="1" parent="1" source="81i_IZVVY1EEvCUCS-hf-1" target="81i_IZVVY1EEvCUCS-hf-2">
          <mxGeometry relative="1" as="geometry" />
        </mxCell>
        <mxCell id="81i_IZVVY1EEvCUCS-hf-1" value="Start" style="ellipse;whiteSpace=wrap;html=1;aspect=fixed;" vertex="1" parent="1">
          <mxGeometry x="100" y="10" width="80" height="80" as="geometry" />
        </mxCell>
        <mxCell id="81i_IZVVY1EEvCUCS-hf-9" value="" style="edgeStyle=orthogonalEdgeStyle;rounded=0;orthogonalLoop=1;jettySize=auto;html=1;" edge="1" parent="1" source="81i_IZVVY1EEvCUCS-hf-2" target="81i_IZVVY1EEvCUCS-hf-4">
          <mxGeometry relative="1" as="geometry" />
        </mxCell>
        <mxCell id="81i_IZVVY1EEvCUCS-hf-2" value="&lt;div&gt;&lt;font style=&quot;font-size: 14px;&quot;&gt;Danielle&lt;/font&gt;&lt;/div&gt;&lt;div&gt;&lt;font size=&quot;3&quot;&gt;CIS-17B &lt;br&gt;&lt;/font&gt;&lt;/div&gt;&lt;div&gt;&lt;font size=&quot;3&quot;&gt;Individual Project&lt;/font&gt;&lt;/div&gt;&lt;div&gt;&lt;font size=&quot;3&quot;&gt;survey_v6&lt;br&gt;&lt;/font&gt;&lt;/div&gt;" style="rounded=1;whiteSpace=wrap;html=1;" vertex="1" parent="1">
          <mxGeometry x="50" y="150" width="180" height="100" as="geometry" />
        </mxCell>
        <mxCell id="81i_IZVVY1EEvCUCS-hf-8" value="" style="edgeStyle=orthogonalEdgeStyle;rounded=0;orthogonalLoop=1;jettySize=auto;html=1;" edge="1" parent="1" source="81i_IZVVY1EEvCUCS-hf-4" target="81i_IZVVY1EEvCUCS-hf-5">
          <mxGeometry relative="1" as="geometry" />
        </mxCell>
        <mxCell id="81i_IZVVY1EEvCUCS-hf-4" value="&lt;div&gt;&lt;font style=&quot;font-size: 14px;&quot;&gt;Function prototype&lt;/font&gt;&lt;/div&gt;&lt;div&gt;&lt;font size=&quot;3&quot;&gt;void getUsrLogin()&lt;br&gt;&lt;/font&gt;&lt;/div&gt;" style="rounded=1;whiteSpace=wrap;html=1;" vertex="1" parent="1">
          <mxGeometry x="50" y="310" width="180" height="100" as="geometry" />
        </mxCell>
        <mxCell id="81i_IZVVY1EEvCUCS-hf-10" value="" style="edgeStyle=orthogonalEdgeStyle;rounded=0;orthogonalLoop=1;jettySize=auto;html=1;" edge="1" parent="1" source="81i_IZVVY1EEvCUCS-hf-5" target="81i_IZVVY1EEvCUCS-hf-6">
          <mxGeometry relative="1" as="geometry" />
        </mxCell>
        <mxCell id="81i_IZVVY1EEvCUCS-hf-5" value="&lt;div&gt;&lt;font style=&quot;font-size: 14px;&quot;&gt;System Libraries:&lt;/font&gt;&lt;/div&gt;&lt;div&gt;&lt;font size=&quot;3&quot;&gt;iostream, iomanip, &lt;br&gt;&lt;/font&gt;&lt;/div&gt;&lt;div&gt;&lt;font size=&quot;3&quot;&gt;cstdlib, ctime,&lt;/font&gt;&lt;/div&gt;&lt;div&gt;&lt;font size=&quot;3&quot;&gt;string, cstring, cctype, fstream&lt;br&gt;&lt;/font&gt;&lt;/div&gt;" style="rounded=1;whiteSpace=wrap;html=1;" vertex="1" parent="1">
          <mxGeometry x="55" y="470" width="170" height="120" as="geometry" />
        </mxCell>
        <mxCell id="81i_IZVVY1EEvCUCS-hf-11" style="edgeStyle=orthogonalEdgeStyle;rounded=0;orthogonalLoop=1;jettySize=auto;html=1;entryX=0;entryY=0.5;entryDx=0;entryDy=0;" edge="1" parent="1" source="81i_IZVVY1EEvCUCS-hf-6" target="HSsXzMtMouH3eaDZhaDV-26">
          <mxGeometry relative="1" as="geometry">
            <Array as="points">
              <mxPoint x="270" y="720" />
              <mxPoint x="270" y="50" />
            </Array>
          </mxGeometry>
        </mxCell>
        <mxCell id="81i_IZVVY1EEvCUCS-hf-6" value="&lt;div&gt;&lt;font style=&quot;font-size: 14px;&quot;&gt;User Libraries:&lt;/font&gt;&lt;/div&gt;&lt;div&gt;&lt;font size=&quot;3&quot;&gt;User.h&lt;/font&gt;&lt;/div&gt;&lt;div&gt;&lt;font size=&quot;3&quot;&gt;Admin.h&lt;/font&gt;&lt;/div&gt;&lt;div&gt;&lt;font size=&quot;3&quot;&gt;Survey.h&lt;br&gt;&lt;/font&gt;&lt;/div&gt;" style="rounded=1;whiteSpace=wrap;html=1;" vertex="1" parent="1">
          <mxGeometry x="60" y="670" width="160" height="100" as="geometry" />
        </mxCell>
      </root>
    </mxGraphModel>
  </diagram>
  <diagram id="eN5O7FiS6pvrHiPAhuM2" name="getUsrLogin()">
    <mxGraphModel dx="903" dy="1159" grid="1" gridSize="10" guides="1" tooltips="1" connect="1" arrows="1" fold="1" page="1" pageScale="1" pageWidth="850" pageHeight="1100" math="0" shadow="0">
      <root>
        <mxCell id="0" />
        <mxCell id="1" parent="0" />
        <mxCell id="u1Ebh921-cxuWhg-WV0r-38" value="&lt;div&gt;return&lt;/div&gt;&lt;div&gt;to&lt;/div&gt;&lt;div&gt;main()&lt;br&gt;&lt;/div&gt;" style="ellipse;whiteSpace=wrap;html=1;aspect=fixed;" vertex="1" parent="1">
          <mxGeometry x="370" y="1610" width="110" height="110" as="geometry" />
        </mxCell>
        <mxCell id="u1Ebh921-cxuWhg-WV0r-94" style="edgeStyle=orthogonalEdgeStyle;rounded=0;orthogonalLoop=1;jettySize=auto;html=1;exitX=0.5;exitY=1;exitDx=0;exitDy=0;entryX=0.5;entryY=0;entryDx=0;entryDy=0;" edge="1" parent="1" source="u1Ebh921-cxuWhg-WV0r-95" target="u1Ebh921-cxuWhg-WV0r-97">
          <mxGeometry relative="1" as="geometry" />
        </mxCell>
        <mxCell id="u1Ebh921-cxuWhg-WV0r-95" value="set int&amp;nbsp; indx = isUsrLogin()" style="rounded=1;whiteSpace=wrap;html=1;" vertex="1" parent="1">
          <mxGeometry x="209.5" y="230" width="119" height="50" as="geometry" />
        </mxCell>
        <mxCell id="u1Ebh921-cxuWhg-WV0r-96" value="" style="edgeStyle=orthogonalEdgeStyle;rounded=0;orthogonalLoop=1;jettySize=auto;html=1;" edge="1" parent="1" source="u1Ebh921-cxuWhg-WV0r-97" target="u1Ebh921-cxuWhg-WV0r-103">
          <mxGeometry relative="1" as="geometry" />
        </mxCell>
        <mxCell id="u1Ebh921-cxuWhg-WV0r-97" value="admin.isUsrLogin()" style="shape=process;whiteSpace=wrap;html=1;backgroundOutline=1;" vertex="1" parent="1">
          <mxGeometry x="188.5" y="310" width="160" height="50" as="geometry" />
        </mxCell>
        <mxCell id="u1Ebh921-cxuWhg-WV0r-98" style="edgeStyle=orthogonalEdgeStyle;rounded=0;orthogonalLoop=1;jettySize=auto;html=1;exitX=0.5;exitY=1;exitDx=0;exitDy=0;entryX=0.5;entryY=0;entryDx=0;entryDy=0;" edge="1" parent="1" source="u1Ebh921-cxuWhg-WV0r-99" target="u1Ebh921-cxuWhg-WV0r-101">
          <mxGeometry relative="1" as="geometry" />
        </mxCell>
        <mxCell id="u1Ebh921-cxuWhg-WV0r-99" value="&lt;div&gt;&lt;b&gt;&lt;font style=&quot;font-size: 14px;&quot;&gt;Start&lt;font&gt;&lt;br&gt;&lt;/font&gt;&lt;/font&gt;&lt;/b&gt;&lt;/div&gt;&lt;div&gt;&lt;b&gt;&lt;font style=&quot;font-size: 14px;&quot;&gt;&lt;font&gt;void getUsrLogin()&lt;/font&gt;&lt;br&gt;&lt;/font&gt;&lt;/b&gt;&lt;/div&gt;&lt;b&gt;&lt;font size=&quot;3&quot;&gt;&lt;br&gt;&lt;/font&gt;&lt;/b&gt;" style="ellipse;whiteSpace=wrap;html=1;aspect=fixed;" vertex="1" parent="1">
          <mxGeometry x="202" y="10" width="121.5" height="121.5" as="geometry" />
        </mxCell>
        <mxCell id="u1Ebh921-cxuWhg-WV0r-100" style="edgeStyle=orthogonalEdgeStyle;rounded=0;orthogonalLoop=1;jettySize=auto;html=1;exitX=0.5;exitY=1;exitDx=0;exitDy=0;" edge="1" parent="1" source="u1Ebh921-cxuWhg-WV0r-101" target="u1Ebh921-cxuWhg-WV0r-95">
          <mxGeometry relative="1" as="geometry" />
        </mxCell>
        <mxCell id="u1Ebh921-cxuWhg-WV0r-101" value="&lt;div&gt;&lt;div&gt;Admin admin;&lt;/div&gt;&lt;div&gt;User user;&lt;br&gt;&lt;/div&gt;&lt;/div&gt;" style="rounded=1;whiteSpace=wrap;html=1;" vertex="1" parent="1">
          <mxGeometry x="201.5" y="150" width="134" height="50" as="geometry" />
        </mxCell>
        <mxCell id="u1Ebh921-cxuWhg-WV0r-102" style="edgeStyle=orthogonalEdgeStyle;rounded=0;orthogonalLoop=1;jettySize=auto;html=1;entryX=0.5;entryY=0;entryDx=0;entryDy=0;" edge="1" parent="1" source="u1Ebh921-cxuWhg-WV0r-103" target="u1Ebh921-cxuWhg-WV0r-105">
          <mxGeometry relative="1" as="geometry" />
        </mxCell>
        <mxCell id="u1Ebh921-cxuWhg-WV0r-129" style="edgeStyle=orthogonalEdgeStyle;rounded=0;orthogonalLoop=1;jettySize=auto;html=1;entryX=0;entryY=0.636;entryDx=0;entryDy=0;entryPerimeter=0;" edge="1" parent="1" source="u1Ebh921-cxuWhg-WV0r-103" target="u1Ebh921-cxuWhg-WV0r-38">
          <mxGeometry relative="1" as="geometry">
            <mxPoint x="90" y="1670" as="targetPoint" />
            <Array as="points">
              <mxPoint x="110" y="455" />
              <mxPoint x="110" y="1680" />
            </Array>
          </mxGeometry>
        </mxCell>
        <mxCell id="u1Ebh921-cxuWhg-WV0r-103" value="if indx&amp;nbsp; != -66" style="rhombus;whiteSpace=wrap;html=1;" vertex="1" parent="1">
          <mxGeometry x="228.5" y="415" width="80" height="80" as="geometry" />
        </mxCell>
        <mxCell id="u1Ebh921-cxuWhg-WV0r-104" value="" style="edgeStyle=orthogonalEdgeStyle;rounded=0;orthogonalLoop=1;jettySize=auto;html=1;" edge="1" parent="1" source="u1Ebh921-cxuWhg-WV0r-105" target="u1Ebh921-cxuWhg-WV0r-106">
          <mxGeometry relative="1" as="geometry" />
        </mxCell>
        <mxCell id="u1Ebh921-cxuWhg-WV0r-105" value="Print user login successful" style="shape=parallelogram;perimeter=parallelogramPerimeter;whiteSpace=wrap;html=1;fixedSize=1;" vertex="1" parent="1">
          <mxGeometry x="323.5" y="495" width="184" height="50" as="geometry" />
        </mxCell>
        <mxCell id="u1Ebh921-cxuWhg-WV0r-106" value="admin.printAdusr(indx)" style="shape=process;whiteSpace=wrap;html=1;backgroundOutline=1;" vertex="1" parent="1">
          <mxGeometry x="319" y="585" width="193" height="50" as="geometry" />
        </mxCell>
        <mxCell id="u1Ebh921-cxuWhg-WV0r-107" style="edgeStyle=orthogonalEdgeStyle;rounded=0;orthogonalLoop=1;jettySize=auto;html=1;exitX=0.5;exitY=1;exitDx=0;exitDy=0;entryX=0.5;entryY=0;entryDx=0;entryDy=0;" edge="1" parent="1" source="u1Ebh921-cxuWhg-WV0r-108" target="u1Ebh921-cxuWhg-WV0r-110">
          <mxGeometry relative="1" as="geometry" />
        </mxCell>
        <mxCell id="u1Ebh921-cxuWhg-WV0r-108" value="&lt;div&gt;// Create new User &amp;amp;&lt;/div&gt;&lt;div&gt;copy admin values to user object&lt;br&gt;&lt;/div&gt;&lt;div&gt;admin.copy2Usr(user,indx);&amp;nbsp;&amp;nbsp;&amp;nbsp; &lt;/div&gt;" style="shape=process;whiteSpace=wrap;html=1;backgroundOutline=1;" vertex="1" parent="1">
          <mxGeometry x="308.5" y="665" width="223" height="70" as="geometry" />
        </mxCell>
        <mxCell id="u1Ebh921-cxuWhg-WV0r-109" style="edgeStyle=orthogonalEdgeStyle;rounded=0;orthogonalLoop=1;jettySize=auto;html=1;exitX=0.5;exitY=1;exitDx=0;exitDy=0;entryX=0.5;entryY=0;entryDx=0;entryDy=0;" edge="1" parent="1" source="u1Ebh921-cxuWhg-WV0r-110" target="u1Ebh921-cxuWhg-WV0r-112">
          <mxGeometry relative="1" as="geometry" />
        </mxCell>
        <mxCell id="u1Ebh921-cxuWhg-WV0r-110" value="user.printUsr();" style="shape=process;whiteSpace=wrap;html=1;backgroundOutline=1;" vertex="1" parent="1">
          <mxGeometry x="349.25" y="765" width="141.5" height="40" as="geometry" />
        </mxCell>
        <mxCell id="u1Ebh921-cxuWhg-WV0r-111" style="edgeStyle=orthogonalEdgeStyle;rounded=0;orthogonalLoop=1;jettySize=auto;html=1;exitX=0.5;exitY=1;exitDx=0;exitDy=0;entryX=0.5;entryY=0;entryDx=0;entryDy=0;" edge="1" parent="1" source="u1Ebh921-cxuWhg-WV0r-112" target="u1Ebh921-cxuWhg-WV0r-113">
          <mxGeometry relative="1" as="geometry" />
        </mxCell>
        <mxCell id="u1Ebh921-cxuWhg-WV0r-112" value="Survey survey" style="rounded=1;whiteSpace=wrap;html=1;" vertex="1" parent="1">
          <mxGeometry x="370.5" y="840" width="90" height="40" as="geometry" />
        </mxCell>
        <mxCell id="u1Ebh921-cxuWhg-WV0r-128" value="" style="edgeStyle=orthogonalEdgeStyle;rounded=0;orthogonalLoop=1;jettySize=auto;html=1;" edge="1" parent="1" source="u1Ebh921-cxuWhg-WV0r-113" target="u1Ebh921-cxuWhg-WV0r-120">
          <mxGeometry relative="1" as="geometry" />
        </mxCell>
        <mxCell id="u1Ebh921-cxuWhg-WV0r-113" value="store.start(user)" style="shape=process;whiteSpace=wrap;html=1;backgroundOutline=1;" vertex="1" parent="1">
          <mxGeometry x="340" y="910" width="160" height="30" as="geometry" />
        </mxCell>
        <mxCell id="u1Ebh921-cxuWhg-WV0r-114" value="&lt;font style=&quot;font-size: 14px;&quot;&gt;&lt;b&gt;true&lt;/b&gt;&lt;/font&gt;" style="text;strokeColor=none;align=center;fillColor=none;html=1;verticalAlign=middle;whiteSpace=wrap;rounded=0;" vertex="1" parent="1">
          <mxGeometry x="340" y="415" width="60" height="30" as="geometry" />
        </mxCell>
        <mxCell id="u1Ebh921-cxuWhg-WV0r-115" value="&lt;font style=&quot;font-size: 14px;&quot;&gt;&lt;b&gt;false&lt;/b&gt;&lt;/font&gt;" style="text;strokeColor=none;align=center;fillColor=none;html=1;verticalAlign=middle;whiteSpace=wrap;rounded=0;" vertex="1" parent="1">
          <mxGeometry x="158.5" y="415" width="60" height="30" as="geometry" />
        </mxCell>
        <mxCell id="u1Ebh921-cxuWhg-WV0r-116" value="admin.printAdUsr(user.getNumRec())" style="shape=process;whiteSpace=wrap;html=1;backgroundOutline=1;" vertex="1" parent="1">
          <mxGeometry x="435.5" y="1350" width="310" height="40" as="geometry" />
        </mxCell>
        <mxCell id="u1Ebh921-cxuWhg-WV0r-117" value="" style="edgeStyle=orthogonalEdgeStyle;rounded=0;orthogonalLoop=1;jettySize=auto;html=1;" edge="1" parent="1" target="u1Ebh921-cxuWhg-WV0r-125">
          <mxGeometry relative="1" as="geometry">
            <mxPoint x="588.5" y="1390" as="sourcePoint" />
          </mxGeometry>
        </mxCell>
        <mxCell id="u1Ebh921-cxuWhg-WV0r-118" style="edgeStyle=orthogonalEdgeStyle;rounded=0;orthogonalLoop=1;jettySize=auto;html=1;exitX=0;exitY=0.5;exitDx=0;exitDy=0;entryX=0.5;entryY=0;entryDx=0;entryDy=0;" edge="1" parent="1" source="u1Ebh921-cxuWhg-WV0r-120" target="u1Ebh921-cxuWhg-WV0r-38">
          <mxGeometry relative="1" as="geometry">
            <mxPoint x="343.5" y="1550" as="targetPoint" />
            <Array as="points">
              <mxPoint x="324" y="1070" />
              <mxPoint x="324" y="1560" />
              <mxPoint x="425" y="1560" />
            </Array>
          </mxGeometry>
        </mxCell>
        <mxCell id="u1Ebh921-cxuWhg-WV0r-119" style="edgeStyle=orthogonalEdgeStyle;rounded=0;orthogonalLoop=1;jettySize=auto;html=1;entryX=0.5;entryY=0;entryDx=0;entryDy=0;" edge="1" parent="1" source="u1Ebh921-cxuWhg-WV0r-120" target="u1Ebh921-cxuWhg-WV0r-122">
          <mxGeometry relative="1" as="geometry" />
        </mxCell>
        <mxCell id="u1Ebh921-cxuWhg-WV0r-120" value="&lt;div&gt;survey.start(user)&lt;/div&gt;&lt;div&gt;== true&lt;br&gt;&lt;/div&gt;" style="rhombus;whiteSpace=wrap;html=1;" vertex="1" parent="1">
          <mxGeometry x="353.5" y="1010" width="133" height="120" as="geometry" />
        </mxCell>
        <mxCell id="u1Ebh921-cxuWhg-WV0r-121" value="" style="edgeStyle=orthogonalEdgeStyle;rounded=0;orthogonalLoop=1;jettySize=auto;html=1;" edge="1" parent="1" source="u1Ebh921-cxuWhg-WV0r-122" target="u1Ebh921-cxuWhg-WV0r-124">
          <mxGeometry relative="1" as="geometry" />
        </mxCell>
        <mxCell id="u1Ebh921-cxuWhg-WV0r-122" value="&lt;div&gt;//rewrite this record in binary&amp;nbsp; &amp;amp; text files&lt;/div&gt;&lt;div&gt;user.reWrtBin(recordLoc)&lt;br&gt;&lt;/div&gt;" style="shape=process;whiteSpace=wrap;html=1;backgroundOutline=1;" vertex="1" parent="1">
          <mxGeometry x="493.5" y="1130" width="190" height="60" as="geometry" />
        </mxCell>
        <mxCell id="u1Ebh921-cxuWhg-WV0r-123" value="" style="edgeStyle=orthogonalEdgeStyle;rounded=0;orthogonalLoop=1;jettySize=auto;html=1;" edge="1" parent="1" source="u1Ebh921-cxuWhg-WV0r-124">
          <mxGeometry relative="1" as="geometry">
            <mxPoint x="588.5" y="1350" as="targetPoint" />
          </mxGeometry>
        </mxCell>
        <mxCell id="u1Ebh921-cxuWhg-WV0r-124" value="&lt;div&gt;// read binary file &amp;amp; reset usrArr[]&lt;/div&gt;&lt;div&gt;admin.readBin_setArray()&lt;br&gt;&lt;/div&gt;" style="shape=process;whiteSpace=wrap;html=1;backgroundOutline=1;" vertex="1" parent="1">
          <mxGeometry x="493.5" y="1250" width="190" height="60" as="geometry" />
        </mxCell>
        <mxCell id="u1Ebh921-cxuWhg-WV0r-130" style="edgeStyle=orthogonalEdgeStyle;rounded=0;orthogonalLoop=1;jettySize=auto;html=1;exitX=0.5;exitY=1;exitDx=0;exitDy=0;" edge="1" parent="1" source="u1Ebh921-cxuWhg-WV0r-125">
          <mxGeometry relative="1" as="geometry">
            <mxPoint x="430" y="1610" as="targetPoint" />
          </mxGeometry>
        </mxCell>
        <mxCell id="u1Ebh921-cxuWhg-WV0r-125" value="&lt;div&gt;// print prints User&#39;s order&lt;/div&gt;&lt;div&gt;that&amp;nbsp; was read from binary file&lt;/div&gt;&lt;div&gt;admin.getCheckout(indx);&lt;/div&gt;" style="shape=process;whiteSpace=wrap;html=1;backgroundOutline=1;" vertex="1" parent="1">
          <mxGeometry x="443.5" y="1450" width="290" height="60" as="geometry" />
        </mxCell>
        <mxCell id="u1Ebh921-cxuWhg-WV0r-126" value="&lt;font style=&quot;font-size: 14px;&quot;&gt;&lt;b&gt;true&lt;/b&gt;&lt;/font&gt;" style="text;strokeColor=none;align=center;fillColor=none;html=1;verticalAlign=middle;whiteSpace=wrap;rounded=0;" vertex="1" parent="1">
          <mxGeometry x="503.5" y="1030" width="60" height="30" as="geometry" />
        </mxCell>
        <mxCell id="u1Ebh921-cxuWhg-WV0r-127" value="&lt;font style=&quot;font-size: 14px;&quot;&gt;&lt;b&gt;false&lt;/b&gt;&lt;/font&gt;" style="text;strokeColor=none;align=center;fillColor=none;html=1;verticalAlign=middle;whiteSpace=wrap;rounded=0;" vertex="1" parent="1">
          <mxGeometry x="323.5" y="1100" width="60" height="30" as="geometry" />
        </mxCell>
      </root>
    </mxGraphModel>
  </diagram>
</mxfile>
